<?xml version="1.0" encoding="UTF-8" standalone="no"?>
<!-- Created with Inkscape (http://www.inkscape.org/) -->

<svg
   version="1.1"
   id="svg1"
   width="888.5918"
   height="908.96051"
   viewBox="0 0 888.5918 908.96051"
   xmlns="http://www.w3.org/2000/svg"
   xmlns:svg="http://www.w3.org/2000/svg">
  <defs
     id="defs1">
    <clipPath
       clipPathUnits="userSpaceOnUse"
       id="clipPath12879">
      <rect
         style="fill:none;fill-rule:nonzero;stroke:#000000;stroke-width:0.689211"
         id="rect12880"
         width="903.9975"
         height="1055.2751"
         x="-2.9788997"
         y="-89.167267" />
    </clipPath>
  </defs>
  <g
     id="g1"
     transform="translate(-2585.2896,-13.376322)">
    <g
       id="g12875-8"
       transform="translate(2572.8627,-5.227842)"
       clip-path="url(#clipPath12879)">
      <path
         d="m 452.14144,927.46121 -27,-0.095 -13.1118,-1.3008 c -7.2114,-0.7154 -20.2614,-2.4923 -29,-3.9485 -8.7385,-1.4562 -23.1068,-4.4062 -31.9296,-6.5555 l -16.0413,-3.9078 -14.4587,-4.8932 c -7.9522,-2.6913 -18.6264,-6.5138 -23.7203,-8.4945 -5.0939,-1.9807 -15.2189,-6.4288 -22.5,-9.8845 -7.2811,-3.4558 -18.17,-8.9208 -24.1976,-12.1445 -6.0276,-3.2236 -15.1276,-8.3991 -20.2222,-11.501 -5.0946,-3.1019 -14.563,-9.3225 -21.0407,-13.8236 -6.4778,-4.5011 -17.6278,-12.8857 -24.7778,-18.6326 -7.15,-5.7468 -16.6,-13.6848 -21,-17.64 -4.4,-3.9553 -11.9661,-11.0956 -16.8135,-15.8675 -4.8475,-4.7718 -13.4051,-13.8511 -19.017,-20.1761 -5.6118,-6.325 -12.6973,-14.65 -15.7454,-18.5 -3.0482,-3.85 -8.706,-11.5 -12.572898,-17 -3.867,-5.5 -10.167,-14.95 -14,-21 -3.833,-6.05 -9.3738,-15.275 -12.3128,-20.5 -2.939,-5.225 -8.1717,-15.174 -11.6282,-22.1088 -3.4565,-6.9349 -8.5799,-18.0658 -11.3853,-24.7354 -2.8054,-6.6696 -6.6686,-16.5207 -8.5849,-21.8912 -1.9164,-5.3705 -3.8644,-10.6646 -4.3291,-11.7646 -0.4647,-1.1 -1.8063,-5.1868 -2.9814,-9.0818 -1.175,-3.895 -4.1461,-14.9861 -6.6024,-24.647 l -4.4658,-17.5652 -2.9989,-17.853 c -1.6494,-9.8191 -3.6762,-24.828 -4.504,-33.353 -0.8278,-8.525 -1.7904,-24.725 -2.139,-36 l -0.6339,-20.50001 1.1498,-16 c 0.6324,-8.8 2.0308,-22.975 3.1076,-31.5 1.0767,-8.525 3.1078,-21.575 4.5135,-29 1.4057,-7.425 3.7015,-18 5.1017,-23.5 1.4003,-5.5 4.104,-15.175 6.0082,-21.5 1.9042,-6.325 5.5245,-17.35 8.045,-24.5 2.5205,-7.15 7.4434,-19.6269 10.9398,-27.7265 3.4963,-8.09952 8.0795,-18.22452 10.1849,-22.50002 2.1053,-4.2754 5.7794,-11.3735 8.1645,-15.7735 2.3851,-4.4 8.1506,-14.075 12.8121,-21.5 4.6615,-7.425 11.6732,-17.9291 15.5814,-23.3425 3.908298,-5.4135 11.087398,-14.8635 15.953598,-21 4.8661,-6.1366 12.2911,-14.9619 16.5,-19.6118 4.2088,-4.6498 10.3524,-11.3535 13.6524,-14.8971 3.3,-3.5435 12.525,-12.2795 20.5,-19.4133 l 14.5,-12.9706 14,-10.4398 c 7.7,-5.74191 14.7927,-11.089006 15.7614,-11.882406 0.9688,-0.7933 1.9483,-1.4425 2.1766,-1.4425 0.2284,0 3.7107,-2.1734 7.7386,-4.8297 4.0279,-2.6564 13.3984,-8.3672 20.8234,-12.6907 7.425,-4.3234 19.8,-10.8835 27.5,-14.5779 7.7,-3.6944 19.85,-9.0641 27,-11.9327 7.15,-2.8686 18.175,-6.9763 24.5,-9.1282 6.325,-2.152 19.375,-5.95321 29,-8.44721 l 17.5,-4.5345 17.4048,-2.9445 17.4049,-2.9445 16.0951,-1.481 16.0952,-1.481 h 24.0894 24.0894 l 15.4415,1.4793 c 8.4929,0.8136 22.2834,2.6344 30.6458,4.0462 8.3623,1.4117 22.2307,4.3491 30.8186,6.5273 8.5879,2.1783 22.9247,6.40121 31.8596,9.38421 l 16.2453,5.4236 19.4832,8.5091 c 10.7158,4.68 22.1481,9.952 25.4052,11.7155 3.2571,1.7635 10.647,5.9265 16.422,9.251 5.775,3.3245 16.1249,9.6538 22.9999,14.0652 6.875,4.4115 16.8068,11.256096 22.0706,15.210296 5.2637,3.95431 14.0387,10.86051 19.5,15.34711 5.4612,4.4866 16.3788,14.5438 24.2614,22.3493 7.8825,7.8056 19.0142,19.5919 24.737,26.1919 5.7228,6.6 14.2583,16.95 18.9678,23 4.7096,6.05 12.3539,16.692 16.9875,23.6488 4.6336,6.9568 11.4216,17.7568 15.0843,24 3.6627,6.2432 10.6512,19.4202 15.5298,29.2822 4.8787,9.8621 11.3025,24.03712 14.2751,31.50002 2.9726,7.463 7.6825,20.7009 10.4663,29.4177 2.7839,8.7168 7.0863,24.0168 9.561,34 l 4.4994,18.1513 2.4923,15.2364 c 1.3708,8.38 3.2787,21.88 4.2398,30 l 1.7474,14.7636 0.024,33.50001 0.024,33.5 -1.7694,14.5 c -0.9732,7.975 -2.9421,21.25 -4.3753,29.5 -1.4332,8.25 -2.6037,15.675 -2.601,16.5 0,0.825 -0.3351,1.95 -0.7505,2.5 -0.4154,0.55 -1.287,3.7 -1.9369,7 -0.6499,3.3 -2.5178,11.0587 -4.151,17.2415 -1.6332,6.1829 -5.1577,17.6579 -7.8323,25.5 -2.6746,7.8422 -6.7188,18.9135 -8.987,24.603 -2.2683,5.6895 -7.2327,16.9395 -11.032,25 -3.7994,8.0605 -9.1231,18.7055 -11.8306,23.6555 -2.7075,4.95 -7.1232,12.612 -9.8125,17.0265 -2.6894,4.4146 -5.6731,9.1213 -6.6305,10.4593 l -1.7407,2.4328 -0.8638,-0.9593 c -0.475,-0.5276 -2.7617,-10.6343 -5.0814,-22.4593 -2.3197,-11.825 -5.0869,-24.9565 -6.1492,-29.181 -1.0623,-4.2246 -3.6842,-12.7746 -5.8265,-19 -2.1422,-6.2255 -5.2385,-14.469 -6.8806,-18.319 -1.6421,-3.85 -4.3249,-9.925 -5.9617,-13.5 -1.6367,-3.575 -5.5801,-11 -8.7631,-16.5 -3.1829,-5.5 -8.9013,-14.643 -12.7076,-20.3179 -3.8063,-5.6748 -7.5265,-11.0748 -8.2672,-12 -0.7408,-0.9251 -4.9312,-6.1821 -9.3121,-11.6821 -4.3809,-5.5 -13.0818,-15.5046 -19.3354,-22.2324 -6.2535,-6.7278 -15.4565,-15.9528 -20.4511,-20.5 -4.9947,-4.5472 -12.1947,-10.8036 -16,-13.9031 -3.8054,-3.0995 -10.4739,-8.1765 -14.8189,-11.2822 -4.3451,-3.1057 -11.995,-8.1959 -16.9999,-11.3115 -5.005,-3.1156 -18.1,-10.28821 -29.1,-15.93921 -11,-5.6509 -22.925,-11.7251 -26.5,-13.4982 -3.575,-1.773 -12.125,-6.3435 -19,-10.1566 -6.875,-3.8131 -17.8541,-10.5051 -24.398,-14.8712 -6.5438,-4.366 -18.0188,-12.5068 -25.5,-18.0908 l -13.602,-10.1525 -12.0351,-12.0312 -12.0351,-12.0311 -7.0404,-9.5 c -3.8721,-5.225 -8.6446,-12.2 -10.6054,-15.5 -1.9608,-3.3 -5.3624,-9.6 -7.559,-14 -2.1966,-4.4 -5.3914,-11.9608 -7.0996,-16.8019 -1.7082,-4.841 -3.7645,-11.6423 -4.5696,-15.114 -0.8052,-3.4716 -1.9825,-11.2644 -2.6162,-17.3173 l -1.1523,-11.00522 1.0851,-9.8808 c 0.5969,-5.4344 1.7638,-12.4673 2.5931,-15.6286 0.8294,-3.1614 2.8548,-9.2403 4.5009,-13.5088 l 2.9929,-7.7608 4.9433,-8.0326 4.9433,-8.0326 7.5749,-8.6644 7.575,-8.6644 6.7521,-5.3609 c 3.7137,-2.9485 9.4521,-7.1777 12.7521,-9.3982 3.3,-2.2205 9.6,-5.8671 14,-8.1035 4.4,-2.2365 10.7,-5.1819 14,-6.5454 3.3,-1.3635 9.825,-3.64 14.5,-5.0589 4.675,-1.419 13.9,-3.5324 20.5,-4.6965 l 12,-2.1167 19,-0.052 19,-0.052 10.5,1.1804 c 5.775,0.6492 16.125,2.0963 23,3.2157 6.875,1.1194 19.0249,3.5912 26.9999,5.4928 7.975,1.9016 18.325,4.6331 23,6.0701 4.675,1.4369 13,4.3891 18.5,6.5604 5.5,2.1713 13.6,5.8059 18,8.077 4.4,2.2711 11.825,6.582 16.5,9.5797 4.675,2.9978 10.975,7.5135 14,10.035 l 5.5,4.5845 -7.9347,-9.5 c -4.3642,-5.225 -14.1217,-15.6403 -21.6835,-23.1451 l -13.7488,-13.6452 -13.3165,-10.675 c -7.3241,-5.8712 -18.9415,-14.4432 -25.8165,-19.0489 -6.875,-4.6057 -17.504,-11.2393 -23.6201,-14.7412 -6.116,-3.502 -17.141,-9.1386 -24.4999,-12.52591 -7.3589,-3.3873 -18.7799,-8.207796 -25.3799,-10.712296 -6.6,-2.5045 -17.175,-6.1004 -23.5,-7.9909 -6.325,-1.8906 -17.5751,-4.7921 -25.0003,-6.4478 -7.4251,-1.6558 -19.5751,-3.9005 -27,-4.9883 l -13.4997,-1.9778 -19.2683,-1.1199 -19.2684,-1.1199 -18.627,1.0948 c -10.2448,0.6022 -23.8491,1.7742 -30.2316,2.6045 -6.3826,0.8304 -17.2297,2.6474 -24.1047,4.0378 -6.875,1.3904 -18.3357,4.1204 -25.4683,6.0666 -7.1326,1.9463 -18.8326,5.5767 -26,8.0678 -7.1674,2.491 -18.2067,6.7737 -24.5317,9.517096 -6.325,2.7434 -11.65,5.38441 -11.8333,5.86881 -0.1834,0.4844 -1.0459,0.8807 -1.9168,0.8807 -0.8709,0 -7.22,2.9661 -14.1092,6.5913 -6.8893,3.6252 -17.8041,9.9352 -24.2553,14.0222 -6.4512,4.087 -17.0521,11.4123 -23.5574,16.2785 -6.5054,4.8662 -15.878,12.3607 -20.828,16.6546 -4.95,4.2938 -14.4,13.2473 -21,19.8966 -6.6,6.6493 -16.2077,16.9796 -21.3506,22.9561 -5.1428,5.9765 -12.368,14.9691 -16.0561,19.9836 -3.688,5.0144 -10.7053,15.4171 -15.5939,23.1171 -4.8886,7.7 -11.9234,19.85 -15.6328,27 -3.7095,7.15 -9.0245,18.33312 -11.811,24.85142 -2.7866,6.5183 -7.2596,17.7683 -9.9401,25 -2.6805,7.2317 -6.7108,19.4486 -8.9561,27.1486 -2.2453,7.7 -5.6463,21.2 -7.5578,30 -1.9115,8.8 -4.3736,22.075 -5.4712,29.5 -1.0977,7.425 -2.5694,18.675 -3.2704,25 l -1.2745,11.5 0.028,28.00001 0.028,28 1.7389,14.9622 c 0.9564,8.2292 2.6325,20.1542 3.7246,26.5 1.0922,6.3458 3.1271,16.7128 4.5221,23.0378 1.3951,6.325 4.3473,18.025 6.5606,26 2.2133,7.975 4.1637,14.6496 4.3342,14.8324 0.1706,0.1828 0.068,-23.2172 -0.2274,-52 l -0.5374,-52.3324 1.6567,-17.5 c 0.9112,-9.625 2.9677,-26.51281 4.57,-37.52851 1.6023,-11.0157 3.882,-24.5157 5.0659,-30 1.1839,-5.4843 4.1085,-17.4159 6.499,-26.5147 2.3904,-9.0988 6.7837,-23.4988 9.7629,-32 2.9791,-8.5012 7.5899,-20.6318 10.2462,-26.9568 2.6563,-6.325 7.6042,-16.9 10.9953,-23.5 3.3911,-6.6 7.6916,-14.4869 9.5566,-17.5265 1.865,-3.0395 7.1819,-11.0496 11.8154,-17.80012 l 8.4244,-12.2737 9.699,-11.1998 c 5.3344,-6.1599 11.1059,-12.5216 12.8255,-14.137 1.7197,-1.6154 3.1642,-3.4154 3.2102,-4 0.046,-0.5846 5.2704,-5.7879 11.6097,-11.5629 6.3394,-5.775 16.6655,-14.6082 22.9469,-19.6294 6.2814,-5.0212 15.3446,-11.8204 20.1403,-15.1094 4.7957,-3.289 11.6445,-7.7684 15.2195,-9.9541 3.575,-2.1857 9.153,-5.4489 12.3956,-7.2516 3.2426,-1.8027 11.1874,-5.9072 17.655,-9.1211 6.4677,-3.2139 17.7646,-8.288 25.1044,-11.2759 7.3398,-2.9879 16.72,-6.5792 20.845,-7.9805 4.125,-1.4014 13.125,-4.1095 20,-6.018 6.875,-1.9086 16.775,-4.4089 22,-5.5562 5.225,-1.1474 13.775,-2.758 19,-3.5793 5.225,-0.8212 15.8749,-1.9476 23.6664,-2.503 l 14.1664,-1.01 14.7504,0.9941 c 8.1127,0.5468 19.0585,1.6874 24.324,2.5347 5.2655,0.8473 9.946,1.9129 10.4011,2.368 l 0.8274,0.8274 -12.6937,6.1362 c -6.9816,3.375 -15.4496,7.7856 -18.8179,9.8014 -3.3682,2.0159 -10.1741,6.3604 -15.1241,9.6546 -4.95,3.2941 -13.05,9.246 -18,13.2264 -4.95,3.9803 -12.7076,10.6984 -17.2392,14.9291 -4.5316,4.2306 -11.7844,11.8151 -16.1175,16.8543 -4.333,5.0393 -10.4546,12.7553 -13.6036,17.1468 -3.149,4.3915 -7.5695,11.1415 -9.8234,15 -2.254,3.8585 -6.0419,10.9266 -8.4175,15.7069 -2.3757,4.7802 -5.8286,12.6552 -7.6732,17.5 -1.8445,4.8447 -4.5085,12.8586 -5.9201,17.80862 -1.4115,4.95 -3.4872,13.8059 -4.6126,19.6798 l -2.0462,10.6799 -1.1362,13.9546 -1.1362,13.9547 1.1063,15.8655 1.1064,15.8655 2.5545,12.5 2.5545,12.5 3.8746,11.6213 c 2.131,6.3917 5.5284,14.9053 7.5498,18.9192 2.0213,4.0138 4.8626,9.1342 6.3139,11.3787 1.4512,2.2444 4.8661,7.2308 7.5886,11.0808 2.7225,3.85 9.0286,11.7074 14.0136,17.4608 4.9849,5.75351 12.4385,13.68191 16.5635,17.61881 4.125,3.9369 9.75,9.0922 12.5,11.4561 2.75,2.364 9.95,7.9466 16,12.4057 6.05,4.4592 14.375,10.3702 18.5,13.1357 4.125,2.7656 12,7.7487 17.5,11.0737 5.5,3.325 17.875,10.6832 27.5,16.3517 9.625,5.6684 23.8,14.4483 31.5,19.5109 7.7,5.0625 19.5232,13.543 26.2737,18.8456 6.7505,5.3026 12.5033,9.641 12.784,9.641 0.2808,0 3.5326,2.7924 7.2264,6.2052 3.6937,3.4129 10.6997,10.2754 15.5687,15.25 4.8691,4.9747 11.4773,12.2361 14.6849,16.1365 3.2077,3.9005 8.8638,11.5505 12.5693,17 l 6.7372,9.9083 5.3899,11.5 c 2.9644,6.325 5.7798,12.4 6.2565,13.5 0.4766,1.1 1.5617,4.25 2.4113,7 0.8497,2.75 2.4136,8.825 3.4754,13.5 1.0617,4.675 2.7292,13.45 3.7055,19.5 l 1.775,11 v 22.5 22.5 l -1.7011,10.5 c -0.9356,5.775 -2.6257,14.775 -3.7556,20 -1.13,5.225 -2.6719,11.525 -3.4266,14 -0.7547,2.475 -1.8796,6.4692 -2.4998,8.876 l -1.1276,4.376 -4.4274,-0.6069 c -2.4351,-0.3337 -12.19,-2.676 -21.6775,-5.2051 -9.4877,-2.529 -27.1502,-7.8871 -39.2502,-11.9069 -12.1,-4.0198 -29.65,-10.3053 -39,-13.9679 -9.35,-3.6625 -24.425,-9.6733 -33.5,-13.3573 l -16.5,-6.6983 -29.5,-14.6822 -29.5,-14.6823 -15.0831,-8.8898 c -8.2957,-4.8894 -23.5957,-14.5145 -34,-21.3892 -10.4043,-6.8746 -22.8257,-15.4881 -27.6031,-19.141 -4.7775,-3.653 -15.5681,-12.398 -23.9791,-19.4334 l -15.2927,-12.7917 -12.5326,-12.5 c -6.8928,-6.875 -16.6185,-17.225 -21.6125,-23 -4.9939,-5.775 -13.9207,-16.8 -19.8371,-24.5 -5.9165,-7.7 -11.1628,-14.15 -11.6585,-14.3333 -0.4957,-0.1834 -0.9013,-0.7302 -0.9013,-1.2152 0,-0.485 -2.5547,-4.835 -5.6771,-9.6667 -3.1224,-4.8316 -9.4224,-15.513 -14,-23.7364 -4.5776,-8.2233 -8.3229,-14.4852 -8.3229,-13.9151 0,0.57 1.6257,6.1732 3.6126,12.4516 1.987,6.2783 5.5976,16.8151 8.0236,23.4151 2.426,6.6 4.796,12.9 5.2668,14 0.4707,1.1 3.0022,6.725 5.6255,12.5 2.6233,5.775 7.8096,16.1508 11.5251,23.0573 3.7154,6.9066 9.327,16.8066 12.4701,22 3.1431,5.1935 9.0132,14.4459 13.0447,20.5608 4.0315,6.115 10.3577,15.115 14.0583,20 3.7006,4.8851 10.5633,13.6069 15.2505,19.3819 4.6871,5.775 12.667,15.225 17.7331,21 5.0661,5.775 17.0137,18.2247 26.5504,27.666 9.5366,9.4413 22.7393,21.9644 29.3393,27.829 6.6,5.8647 12.5676,10.9026 13.2614,11.1954 0.6937,0.2927 2.7298,1.9447 4.5246,3.671 1.7947,1.7262 8.8771,7.6853 15.7386,13.2424 6.8615,5.5571 19.6754,15.4055 28.4754,21.8852 8.8,6.4798 27.025,19.1047 40.5,28.0554 13.475,8.9507 30.0492,19.4395 36.8315,23.3086 6.7823,3.8691 12.8573,7.2287 13.5,7.4658 l 1.1685,0.4312 -1.1605,1.2355 -1.1604,1.2355 -5.8396,1.3825 c -3.2117,0.7603 -13.7145,2.9365 -23.3395,4.8359 -9.625,1.8994 -20.875,3.9508 -25,4.5587 -4.125,0.6079 -13.8,1.7482 -21.5,2.5339 l -14,1.4285 z m 519.9365,-280.8653 h -51.3186 l -0.5794,-0.9376 -0.5795,-0.9376 20.6236,-58.3124 c 11.3429,-32.0718 24.8893,-70.2374 30.1031,-84.8124 5.2137,-14.575 15.5658,-43.60001 23.0047,-64.50001 7.43876,-20.9 14.98826,-42.275 16.77656,-47.5 1.7883,-5.225 11.1484,-31.55 20.8002,-58.5 9.6518,-26.95 19.7114,-55.23522 22.3547,-62.85612 l 4.8061,-13.8561 2.351,-0.8939 2.3511,-0.8939 h 43.3125 43.3124 l 0.9721,1.25 c 0.5346,0.6875 4.6854,11.5667 9.2239,24.1761 4.5385,12.60932 8.6119,23.63432 9.052,24.50002 0.4401,0.8656 6.5325,18.2239 13.5387,38.5739 7.0062,20.35 13.3505,37.9967 14.0984,39.2148 0.7479,1.2182 1.3598,2.7648 1.3598,3.437 0,0.6722 4.5441,13.8506 10.098,29.2852 5.5539,15.4347 13.8316,38.413 18.3948,51.063 4.5633,12.65001 11.726,32.67501 15.917,44.50001 4.191,11.825 8.0243,22.4 8.5185,23.5 0.4941,1.1 9.7132,26.9042 20.4868,57.3426 l 19.5885,55.3426 -0.5608,0.9074 -0.5608,0.9074 h -51.241 -51.241 l -1.0659,-1.0659 c -0.5862,-0.5862 -5.4847,-15.4362 -10.8855,-33 l -9.8196,-31.9341 h -60.2675 -60.2675 l -0.9159,3.25 c -0.5038,1.7875 -4.8553,16.075 -9.67,31.75 -4.8147,15.675 -9.2038,29.0625 -9.7535,29.75 l -0.9995,1.25 z m 133.06336,-149 c 19.525,0 35.5,-0.2398 35.5,-0.5328 0,-0.2931 -6.47,-22.0056 -14.3777,-48.25001 -7.9078,-26.2445 -15.8483,-52.8042 -17.6455,-59.0217 l -3.2678,-11.3045 -0.7972,0.8045 c -0.4384,0.4425 -1.2222,2.6045 -1.7418,4.8045 -0.5195,2.2 -8.1953,28.432 -17.0573,58.2932 -8.862,29.8613 -16.1127,54.49881 -16.1127,54.75001 0,0.2513 15.975,0.4568 35.5,0.4568 z m 257.3149,148.7595 -48.6852,0.2595 -0.602,-0.9741 -0.602,-0.9741 0.039,-194.63391 c 0.022,-107.0487 0.2898,-195.03962 0.5962,-195.53542 l 0.5571,-0.9015 83.191,0.017 83.191,0.017 9.5,0.9969 9.5,0.9969 10.0733,2.4239 c 5.5404,1.3332 14.0767,3.811 18.9696,5.5064 4.893,1.6954 12.51,4.8446 16.9267,6.9982 4.4167,2.1536 11.6304,6.2921 16.0304,9.1967 l 8,5.28112 9.0271,9.0326 9.0272,9.0327 6.299,9.4294 c 3.4645,5.1861 7.5794,11.9658 9.1443,15.0659 1.565,3.1001 4.2274,9.8877 5.9165,15.0837 1.6892,5.196 4.0596,13.7163 5.2678,18.9341 l 2.1965,9.4869 v 19 19 l -2.1765,9.1926 c -1.197,5.056 -3.5191,12.8719 -5.1602,17.3687 -1.6412,4.4968 -4.6184,11.1601 -6.616,14.8073 -1.9977,3.6472 -5.635,9.4476 -8.083,12.8896 -2.448,3.4421 -7.463,9.30081 -11.1444,13.01951 -3.6815,3.7187 -9.3936,8.8208 -12.6936,11.3379 -3.3,2.5171 -9.6,6.6786 -14,9.2479 l -8,4.6713 -10.4888,4.1054 -10.4887,4.1054 -9.9627,2.4589 c -5.4794,1.3524 -14.0345,3.1335 -19.0112,3.958 l -9.0486,1.499 -38.7426,0.5377 -38.7427,0.5378 -0.2573,63.6315 -0.2621,63.6315 z m 83.1851,-210.10861 31.5,-0.4537 6,-1.536 c 3.3,-0.8447 8.0878,-2.4632 10.6396,-3.5965 l 4.6395,-2.0606 4.8965,-4.4023 4.8965,-4.4024 2.7219,-5.3797 2.7219,-5.3798 1.5913,-7.4699 1.5914,-7.47 -0.5525,-8.5 -0.5524,-8.5 -1.5648,-6 c -0.8606,-3.3 -2.9962,-8.8563 -4.7458,-12.3473 l -3.1811,-6.3474 -4.309,-4.248 -4.3089,-4.2481 -5.0922,-2.7715 c -2.8008,-1.5244 -7.4097,-3.4452 -10.2421,-4.2686 l -5.1498,-1.497 -31.837,-0.499 -31.8371,-0.499 -1.1023,1.1023 -1.1022,1.1023 0.2759,49.2551 0.2759,49.2552 1.1634,0.8079 1.1634,0.8078 z m 473.9534,210.10801 -51.5467,0.2589 -1.6993,-1.2589 -1.6993,-1.2589 -30.4797,-63.3885 c -16.7639,-34.8637 -31.1821,-64.4603 -32.0403,-65.7702 l -1.5605,-2.3816 -20.7138,0.2701 -20.7137,0.2702 -0.2571,66.25 -0.2572,66.25 h -48.9928 -48.9929 l -0.01,-59 c 0,-32.45 -0.01,-90.275 -0.01,-128.50001 0,-38.225 0,-99.875 0.01,-137 l 0.01,-67.50002 h 83.394 83.3941 l 10.3559,1.0595 c 5.6958,0.5827 15.6717,2.1803 22.1687,3.5502 6.4969,1.37 15.7219,3.8564 20.5,5.5255 4.778,1.6691 11.8373,4.5452 15.6873,6.3913 3.85,1.8461 10.3951,5.598 14.5447,8.3376 4.1496,2.7397 10.7118,7.91352 14.5828,11.49742 l 7.0382,6.5163 5.0392,7.3111 c 2.7716,4.0211 6.3906,10.0111 8.0423,13.3111 1.6516,3.3 4.2198,9.375 5.707,13.5 l 2.7041,7.5 1.8756,11.2622 1.8757,11.2621 0.1777,13.7379 0.1777,13.7378 -1.2159,9 c -0.6687,4.95 -1.8734,11.7 -2.6771,15 -0.8038,3.3 -3.0472,10.1521 -4.9854,15.2269 l -3.5239,9.2269 -5.0727,7.7731 -5.0727,7.7731 -7.1086,7.3733 c -3.9098,4.0554 -9.3587,9.0426 -12.1087,11.0828 -2.75,2.04021 -8.9044,6.05361 -13.6763,8.91881 l -8.6764,5.2094 2.3069,5.2078 c 1.2688,2.8644 9.1767,18.9329 17.5732,35.7079 8.3964,16.775 24.6735,49.85 36.1713,73.5 11.4978,23.65 20.9942,43.9 21.1032,45 l 0.1981,2 z m -125.9533,-216.10771 32.5,-0.2655 5,-1.857 c 2.75,-1.0213 6.8,-2.9624 9,-4.3134 2.2,-1.3511 5.2885,-3.6398 6.8634,-5.0859 1.5748,-1.4462 3.9206,-4.2815 5.2128,-6.3007 1.2922,-2.0192 3.2207,-6.2942 4.2854,-9.5 l 1.936,-5.8287 0.6582,-8 0.6583,-8 -1.073,-7.3879 -1.073,-7.3879 -2.3684,-5.8636 -2.3684,-5.8636 -3.2794,-4.2485 c -1.8036,-2.3367 -4.5983,-5.3305 -6.2103,-6.653 -1.6121,-1.3225 -5.4759,-3.4271 -8.5863,-4.677 l -5.6553,-2.2725 -9.2525,-1.0227 -9.2526,-1.0228 -25.9974,0.608 -25.9975,0.6081 v 46.7584 46.7583 l 1.25,0.5418 c 0.6875,0.2979 15.875,0.4222 33.75,0.2761 z m 267.8606,216.10831 -48.6394,0.2594 -0.6106,-1.5912 -0.6106,-1.5913 v -88.2526 c 0,-48.5389 0.2993,-136.25211 0.6651,-194.91821 l 0.6651,-106.66562 h 48.8132 48.8132 l 0.2717,130.25002 c 0.1494,71.6375 0.047,159.95001 -0.2283,196.25001 l -0.5,66 z m 234.4978,-0.01 -127.1415,0.2538 -0.6302,-1.6423 -0.6302,-1.6423 0.028,-193.96761 c 0.015,-106.6821 0.2769,-194.36982 0.5807,-194.86152 l 0.5528,-0.8936 h 48.441 48.441 l 0.029,109.75002 c 0.016,60.3625 0,130.03841 -0.028,154.83521 l -0.057,45.0852 78.2281,0.6651 78.2282,0.6651 0.8113,0.8114 0.8114,0.8113 -0.2617,39.9384 -0.2613,39.9383 z"
         id="path12869-2" />
    </g>
  </g>
</svg>
